<?xml version="1.0" standalone="no"?>
<!DOCTYPE svg PUBLIC "-//W3C//DTD SVG 20010904//EN"
 "http://www.w3.org/TR/2001/REC-SVG-20010904/DTD/svg10.dtd">
<svg version="1.0" xmlns="http://www.w3.org/2000/svg"
 width="78.000000pt" height="78.000000pt" viewBox="0 0 78.000000 78.000000"
 preserveAspectRatio="xMidYMid meet">

<g transform="translate(0.000000,78.000000) scale(0.100000,-0.100000)"
fill="#000000" stroke="none">
<path d="M422 609 c-32 -21 -33 -24 -30 -77 3 -51 6 -58 36 -75 l32 -19 0 96
c0 53 -1 96 -2 96 -2 0 -18 -10 -36 -21z"/>
<path d="M470 530 c0 -107 -3 -113 -48 -82 -55 38 -55 38 -49 -4 l6 -39 -13
40 c-15 44 -12 49 -35 -55 l-10 -45 5 50 c3 28 7 58 10 68 5 14 -2 17 -40 17
-43 0 -45 -1 -49 -32 l-4 -33 -1 33 c-1 17 -6 32 -11 32 -4 0 -20 11 -35 25
-15 14 -32 23 -37 20 -5 -4 -9 -64 -9 -135 l0 -130 162 -3 163 -3 -162 -2
c-137 -2 -163 -4 -163 -17 0 -13 25 -15 164 -15 153 0 165 -1 171 -19 9 -29
59 -46 94 -32 33 14 51 48 51 97 0 26 -5 37 -18 41 -14 3 -18 11 -14 29 9 48
-55 77 -78 34 -11 -21 -40 -28 -40 -10 0 23 50 60 79 60 35 0 43 -11 48 -59 7
-66 11 -43 12 63 l1 106 -59 0 -60 0 -4 -52 c-2 -29 -4 -7 -5 50 -3 135 -22
137 -22 2z m-175 -110 c-5 -8 -11 -8 -17 -2 -6 6 -7 16 -3 22 5 8 11 8 17 2 6
-6 7 -16 3 -22z m-58 -62 c-2 -13 -4 -5 -4 17 -1 22 1 32 4 23 2 -10 2 -28 0
-40z m72 -54 c-18 -22 -83 -15 -85 9 -1 12 -1 13 3 2 3 -10 17 -15 40 -15 28
0 36 5 41 22 3 12 7 17 10 10 2 -7 -2 -19 -9 -28z m259 -66 l-1 -43 -4 38 c-2
20 -8 37 -13 37 -5 0 -11 -17 -13 -37 l-4 -38 -1 43 c-2 36 1 42 18 42 17 0
20 -6 18 -42z"/>
<path d="M220 535 l0 -45 80 0 80 0 0 45 0 45 -80 0 -80 0 0 -45z"/>
<path d="M190 535 c0 -14 5 -25 10 -25 6 0 10 11 10 25 0 14 -4 25 -10 25 -5
0 -10 -11 -10 -25z"/>
<path d="M510 388 c-11 -12 -17 -24 -15 -27 3 -2 13 6 22 18 13 19 22 22 50
18 20 -4 31 -2 28 4 -11 17 -64 9 -85 -13z"/>
<path d="M340 191 c-16 -30 -14 -31 50 -31 64 0 66 1 50 31 -8 14 -21 19 -50
19 -29 0 -42 -5 -50 -19z"/>
</g>
</svg>
