<?xml version="1.0" encoding="UTF-8"?>
<svg xmlns="http://www.w3.org/2000/svg" xmlns:xlink="http://www.w3.org/1999/xlink" viewBox="0 0 100 100" width="100px" height="100px">
<g id="surface49770503">
<path style=" stroke:none;fill-rule:nonzero;fill:rgb(18.039216%,80.000001%,44.313726%);fill-opacity:1;" d="M 32 6 C 17.660156 6 6 17.660156 6 32 L 6 68 C 6 82.339844 17.660156 94 32 94 L 68 94 C 82.339844 94 94 82.339844 94 68 L 94 32 C 94 17.660156 82.339844 6 68 6 Z M 74 22 C 76.199219 22 78 23.800781 78 26 C 78 28.199219 76.199219 30 74 30 C 71.800781 30 70 28.199219 70 26 C 70 23.800781 71.800781 22 74 22 Z M 50 28 C 62.140625 28 72 37.859375 72 50 C 72 62.140625 62.140625 72 50 72 C 37.859375 72 28 62.140625 28 50 C 28 37.859375 37.859375 28 50 28 Z M 50 32 C 40.078125 32 32 40.078125 32 50 C 32 59.921875 40.078125 68 50 68 C 59.921875 68 68 59.921875 68 50 C 68 40.078125 59.921875 32 50 32 Z M 50 32 "/>
</g>
</svg>
